<svg class="animated" id="freepik_stories-cherry-drink" xmlns="http://www.w3.org/2000/svg" viewBox="0 0 500 500" version="1.1" xmlns:xlink="http://www.w3.org/1999/xlink" xmlns:svgjs="http://svgjs.com/svgjs"><style>svg#freepik_stories-cherry-drink:not(.animated) .animable {opacity: 0;}svg#freepik_stories-cherry-drink.animated #freepik--Drink--inject-41 {animation: 0.5s 1 forwards linear zoomOut;animation-delay: 0s;}svg#freepik_stories-cherry-drink.animated #freepik--Cherries--inject-41 {animation: 6s Infinite  linear floating;animation-delay: 0s;}            @keyframes zoomOut {                0% {                    opacity: 0;                    transform: scale(1.5);                }                100% {                    opacity: 1;                    transform: scale(1);                }            }                    @keyframes floating {                0% {                    opacity: 1;                    transform: translateY(0px);                }                50% {                    transform: translateY(-10px);                }                100% {                    opacity: 1;                    transform: translateY(0px);                }            }        </style><g id="freepik--background-simple--inject-41" class="animable" style="transform-origin: 242.972px 226.202px;"><path d="M205.41,27.93S4.52,252.89,15.87,282,426.38,440.21,444.72,430.8,477,169.06,467.43,150.25,250.83,39.91,235.1,31.35,215,15.1,205.41,27.93Z" style="fill: #77FFC0; transform-origin: 242.972px 226.202px;" id="elpdhibp6tdl" class="animable"></path><g id="el7cq88pu13y"><path d="M205.41,27.93S4.52,252.89,15.87,282,426.38,440.21,444.72,430.8,477,169.06,467.43,150.25,250.83,39.91,235.1,31.35,215,15.1,205.41,27.93Z" style="fill: rgb(255, 255, 255); opacity: 0.7; transform-origin: 242.972px 226.202px;" class="animable" id="elrbkfi1k6pr"></path></g></g><g id="freepik--Drink--inject-41" class="animable animator-active" style="transform-origin: 236.819px 243.621px;"><g id="el46a8745io5m" class=""><circle cx="336.64" cy="135.86" r="75.39" style="fill: #77FFC0; stroke: rgb(38, 50, 56); stroke-miterlimit: 10; transform-origin: 336.64px 135.86px; transform: rotate(-45deg);" class="animable" id="elylxic24t66h"></circle></g><g id="elr3qc1bn1z1g" class=""><circle cx="336.64" cy="135.86" r="70.77" style="fill: none; stroke: rgb(38, 50, 56); stroke-miterlimit: 10; transform-origin: 336.64px 135.86px; transform: rotate(-45deg);" class="animable" id="ellg2mw9pntn"></circle></g><path d="M356.74,76.64c1.09-2-4.45-8.7-16.08-9-13.6-.36-17.8,2.58-19.43,7.2,0,0,13.6,53.51,15.23,54.84S355.65,78.63,356.74,76.64Z" style="fill: rgb(255, 255, 255); transform-origin: 339.052px 98.6576px;" id="el7v04gh7nopg" class="animable"></path><path d="M333.1,131.25c2.1.11-14.48-52.58-14.77-54.82S309.61,72,300,78.59c-11.21,7.71-12.88,12.55-11.49,17.25C288.54,95.84,331,131.14,333.1,131.25Z" style="fill: rgb(255, 255, 255); transform-origin: 310.689px 102.724px;" id="el9l9o11kupsl" class="animable"></path><path d="M274.45,132s55.09,3.6,56.85,2.46-42.62-34-44.17-35.67-9.65,1.54-13.53,12.5C269.06,124.16,270.55,129.06,274.45,132Z" style="fill: rgb(255, 255, 255); transform-origin: 301.076px 116.529px;" id="elftw10ybxzdd" class="animable"></path><path d="M342.64,133.09c-.75,2,54.48,2.47,56.7,2.9s6.91-6.93,3.6-18.07c-3.87-13.06-7.95-16.14-12.86-16.26C390.08,101.66,343.39,131.13,342.64,133.09Z" style="fill: rgb(255, 255, 255); transform-origin: 373.359px 118.834px;" id="elxzmuz4wvrv9" class="animable"></path><path d="M387.68,99.39c2.05-1,1.52-9.66-7.71-16.73-10.8-8.29-15.92-8.38-20-5.6,0,0-20.45,51.29-19.91,53.32S385.64,100.36,387.68,99.39Z" style="fill: rgb(255, 255, 255); transform-origin: 364.357px 102.947px;" id="elwt7iacuqklc" class="animable"></path><path d="M336.17,141.9c-1.71,1.22-18.64,53.77-18.64,53.77,1.34,4.72,5.34,7.91,19,8.41,11.61.43,17.56-5.93,16.6-8S337.88,140.69,336.17,141.9Z" style="fill: rgb(255, 255, 255); transform-origin: 335.38px 172.99px;" id="elm51kkd577q" class="animable"></path><path d="M332.91,140.12c-2.1,0-46.68,32.55-46.68,32.55-1.69,4.6-.33,9.54,10.38,17.94,9.15,7.17,17.7,5.52,18.13,3.3S335,140.14,332.91,140.12Z" style="fill: rgb(255, 255, 255); transform-origin: 309.344px 167.965px;" id="elwvib3ah7yjm" class="animable"></path><path d="M331.32,136.76c-1.68-1.25-56.9-1.11-56.9-1.11-4.07,2.74-5.87,7.53-2.14,20.62,3.18,11.19,11.08,14.88,12.73,13.33S333,138,331.32,136.76Z" style="fill: rgb(255, 255, 255); transform-origin: 300.805px 152.791px;" id="elo7ftkruxjt" class="animable"></path><path d="M399.32,139.54c-2.24.29-57.4-2.66-56.77-.66s45.38,34.35,45.38,34.35c4.9.18,9.17-2.64,13.85-15.42C405.78,146.89,401.56,139.26,399.32,139.54Z" style="fill: rgb(255, 255, 255); transform-origin: 372.99px 155.709px;" id="el9vbdz8pui0p" class="animable"></path><path d="M385.39,175.33c-2-1.09-44.87-35.89-45.54-33.9s16.52,54.46,16.52,54.46c3.86,3,9,3.26,20.28-4.34C386.3,185.07,387.37,176.42,385.39,175.33Z" style="fill: rgb(255, 255, 255); transform-origin: 363.025px 169.597px;" id="elyhnzsxiup7d" class="animable"></path><g id="freepik--cherry-1--inject-41" class="animable" style="transform-origin: 358.725px 118.123px;"><path d="M342.64,120.42a19.33,19.33,0,0,0-22.62-8c-15.3,4.66-22.62,22.62-20,34.59s10,25.28,30.61,30.61,39.25-12,39.91-28.61-5.32-24-10.64-25.95S342.64,120.42,342.64,120.42Z" style="fill: #77FFC0; stroke: rgb(38, 50, 56); stroke-miterlimit: 10; transform-origin: 335.044px 144.991px;" id="elqjs1i1u55we" class="animable"></path><g id="elc3lmcr95nej"><path d="M336.76,126.74c-6.74-10.95-12.87-13.93-17.43-14.07-14.83,5-21.89,22.57-19.27,34.36,2.45,11,8.87,23.19,26,29.2C341.64,165.19,347.69,144.51,336.76,126.74Z" style="fill: rgb(255, 255, 255); opacity: 0.16; transform-origin: 320.92px 144.45px;" class="animable" id="eles5ho259xlv"></path></g><path d="M342.64,120.42s16.21-34.48,30.87-44.49a241.77,241.77,0,0,1,29-16.8s14.66-4.65,15.37,2.5S413.92,67.71,410,67s-5.72-1.43-11.79.36-19.31,5.72-26.46,13.59-22.89,39-22.89,39Z" style="fill: rgb(38, 50, 56); stroke: rgb(38, 50, 56); stroke-linecap: round; stroke-linejoin: round; transform-origin: 380.296px 89.0319px;" id="elv2obuby3kgk" class="animable"></path><path d="M321.81,126.13s-4.18-1-7,4.18-.35,9.42,1.39,9.42,9.77-4.53,10.11-8.37S327,124.39,321.81,126.13Z" style="fill: rgb(255, 255, 255); transform-origin: 320.005px 132.683px;" id="el6im29oier5a" class="animable"></path><path d="M339.44,118.29s1.49,4,4.31,5,8.3-.67,8.3-.67A11.35,11.35,0,0,1,339.44,118.29Z" style="fill: rgb(255, 255, 255); transform-origin: 345.745px 120.95px;" id="elbgb8ezgtsg9" class="animable"></path></g><g id="el6jd8wo9q5r" class=""><path d="M320.75,419.13l-.49,5.33c0,15.7-44.3,28.42-98.94,28.42s-98.94-12.72-98.94-28.42l-1.48-16c-53.43,4.1-90.52,13.1-90.52,23.55C30.38,446.34,100,458,185.87,458S341.35,446.34,341.35,432C341.35,427.34,333.85,422.93,320.75,419.13Z" style="opacity: 0.2; transform-origin: 185.865px 433.23px;" class="animable" id="elgwi1kk3d3v"></path></g><path d="M139.85,167.92s25.29-21.68,27.52-22.79,37.79-8.61,42.24-6.67,24.45,29.18,24.45,29.18Z" style="fill: none; stroke: rgb(38, 50, 56); stroke-miterlimit: 10; transform-origin: 186.955px 153.031px;" id="elem7al1xpuxi" class="animable"></path><path d="M102.23,165.83l20.15,258.63c0,15.7,44.3,28.42,98.94,28.42s98.94-12.72,98.94-28.42L340.4,165.83Z" style="fill: none; stroke: rgb(38, 50, 56); stroke-linecap: round; stroke-linejoin: round; transform-origin: 221.315px 309.355px;" id="el288hc5jilxk" class="animable"></path><path d="M104.34,168.64l17.29,224.42c0,15.63,44.63,28.29,99.69,28.29S321,408.69,321,393.06l17.29-224.42Z" style="fill: #77FFC0; transform-origin: 221.315px 294.995px;" id="elpd8ma2zzr4i" class="animable"></path><g id="elc4wymynlzy5" class=""><g style="opacity: 0.13; transform-origin: 221.315px 294.995px;" class="animable" id="elqg5eiq4rsos"><path d="M104.34,168.64l17.29,224.42c0,15.63,44.63,28.29,99.69,28.29S321,408.69,321,393.06l17.29-224.42Z" id="ele2ul6j4e93l" class="animable" style="transform-origin: 221.315px 294.995px;"></path></g></g><path d="M142.18,436.55s25.82,5.07,28.62,5.65c10.92,2.26,21.09,4.9,32,5.65s12.81,1.51,27.87.76,24.11-3.39,24.11-3.39,11.67,0,13.18-.76,3.77-.75,6.4-1.13,6-.75,6-.75,0,2.64,6-1.51,7.91-3.76,6-4.14-8.28,0-10.92,1.13a16.94,16.94,0,0,1-6.4,1.51c-1.51,0-1.51-.76-4.15-.38s-2.26.75-5.27,1.51a23.57,23.57,0,0,1-6.4.75H248s-3.39.75-5.27,1.13a35.62,35.62,0,0,1-5.28.38,53,53,0,0,1-7.15-.76,73.86,73.86,0,0,0-9.79-.75s-7.16.38-8.29.38a37,37,0,0,0-6.78,0,55.17,55.17,0,0,1-6.78.37H193s-3.77.1-4.89,0c-4.52-.37-6.41-.37-6.41-.37s-3.76-1.89-5.27-1.89-.75-.37-3.39-.37-5.65-.38-7.16-.38-19.58-4.52-19.58-4.52S139.92,433.54,142.18,436.55Z" style="fill: #77FFC0; transform-origin: 217.384px 441.69px;" id="eln1lhk4i6278" class="animable"></path><path d="M122.21,402.28s11.3,10.92,17.71,12.43,11.67,2.26,9.41,4.52-3.76,3.39-2.26,5.27,5.28,4.15,3,5.28-13.19-1.13-12.43,1.88,4.52,4.89,4.52,4.89,6.4,3.77,5.27,4.52-13.94-5.27-18.08-8.28-5.65-3.77-6.4-13.56S122.21,402.28,122.21,402.28Z" style="fill: rgb(38, 50, 56); stroke: rgb(38, 50, 56); stroke-linecap: round; stroke-linejoin: round; transform-origin: 136.497px 421.707px;" id="el27ywum493zk" class="animable"></path><path d="M318.82,406.42s-1.13,3.77-9.42,6-17.32,4.9-17.7,7.16,0,3.39-3.39,4.14-15.07,3.39-15.07,3.39,16.58.75,24.11-2.26,15.06-8.66,16.95-6a7.08,7.08,0,0,1-1.13,9.42c-3,2.64-10.17,0-13.18,1.88s-7.16,8.29-3.39,8.29,10.92-4.14,16.19-7.16,6.4-6.4,6.4-14.31A91.82,91.82,0,0,0,318.82,406.42Z" style="fill: rgb(38, 50, 56); stroke: rgb(38, 50, 56); stroke-linecap: round; stroke-linejoin: round; transform-origin: 296.227px 422.43px;" id="ellqz2xsoxqko" class="animable"></path><path d="M230.17,203.09c-12.72,16.84-34.09,43.07-34.68,44.23" style="fill: none; stroke: rgb(38, 50, 56); stroke-miterlimit: 10; transform-origin: 212.83px 225.205px;" id="el4w9temkx9xu" class="animable"></path><path d="M235.3,173.7s5.18,10.91,4.09,15.82c-.23,1-2.36,4.26-5.57,8.65" style="fill: none; stroke: rgb(38, 50, 56); stroke-miterlimit: 10; transform-origin: 236.68px 185.935px;" id="el98v7r89qdf9" class="animable"></path><path d="M138.2,255.92a22.21,22.21,0,0,0,4.4,3.4c4.09,1.91,9-1.91,9-1.91" style="fill: none; stroke: rgb(38, 50, 56); stroke-miterlimit: 10; transform-origin: 144.9px 257.887px;" id="el68gprn39sp2" class="animable"></path><path d="M138,173.16s-24,48-22.08,53.71a43.85,43.85,0,0,0,7.63,13.63c1.37,1.55,6.94,7.82,11.91,12.75" style="fill: none; stroke: rgb(38, 50, 56); stroke-miterlimit: 10; transform-origin: 126.905px 213.205px;" id="eloj3vezqi2w9" class="animable"></path><path d="M277.58,234.47c-6.53-3.68-15.83-7.6-15.83-7.6" style="fill: none; stroke: rgb(38, 50, 56); stroke-miterlimit: 10; transform-origin: 269.665px 230.67px;" id="el5mn8y21llsd" class="animable"></path><path d="M219.49,232.05s-6.27,24.27-4.91,26.18S244,276.77,254.66,280s28.63-37.08,29.17-40.35c.1-.59-.55-1.38-1.68-2.28" style="fill: none; stroke: rgb(38, 50, 56); stroke-miterlimit: 10; transform-origin: 249.114px 256.117px;" id="ele0am4dqzcil" class="animable"></path><path d="M211.15,279.6c-.31,3.69-.35,6.8.16,8.07" style="fill: none; stroke: rgb(38, 50, 56); stroke-miterlimit: 10; transform-origin: 211.115px 283.635px;" id="el3brvqzre56" class="animable"></path><path d="M213.76,260.41s-1.3,7.35-2.14,14.5" style="fill: none; stroke: rgb(38, 50, 56); stroke-miterlimit: 10; transform-origin: 212.69px 267.66px;" id="elbz1gw1zqtt9" class="animable"></path><g id="elliskic2qssh" class=""><path d="M161.16,172.35s-9.15.71-11.26,8.45,16.88,46.43,22.51,56.29,14.08,7.74,18.3,2.81,40.1-46.44,39.4-53.48-6.33-11.25-6.33-11.25Z" style="fill: rgb(255, 255, 255); opacity: 0.39; transform-origin: 189.929px 208.197px;" class="animable" id="elt0u4obwhqql"></path></g><g id="eltfke0rhs78f" class=""><path d="M165.67,178s-7.71.59-9.49,7.12,14.24,39.14,19,47.45,11.87,6.52,15.43,2.37,33.8-39.15,33.21-45.08a14.77,14.77,0,0,0-5.34-9.49Z" style="fill: rgb(255, 255, 255); opacity: 0.39; transform-origin: 189.936px 208.215px;" class="animable" id="elpyl32heovx"></path></g><g id="elzpadomxynbp" class=""><path d="M164.67,281.15s-23.92-35.88-28.14-36.58-15.48,14.77-12.67,24.62,12.67,21.82,20.41,23.93S164.67,281.15,164.67,281.15Z" style="fill: rgb(255, 255, 255); opacity: 0.39; transform-origin: 144.043px 268.941px;" class="animable" id="el98mkuqk1j9f"></path></g><g id="elctszxe80e2f" class=""><path d="M274.55,247.36s-38.7-23.22-45-18.3-14.07,23.22-8.44,28.85,24.63,19.7,33.07,19S274.55,247.36,274.55,247.36Z" style="fill: rgb(255, 255, 255); opacity: 0.39; transform-origin: 246.858px 252.655px;" class="animable" id="el6s010pwq05g"></path></g><g id="el84ilpctvmuv" class=""><path d="M319.53,218s-45.09,6.15-50.72,13.19-11.26,14.07-6.33,20.4,28.85,20.41,39.4,25.33,20.41,1.41,22.52-8.44,8.44-38,7.74-44.33S325.22,213.26,319.53,218Z" style="fill: rgb(255, 255, 255); opacity: 0.14; transform-origin: 296.391px 247.584px;" class="animable" id="el0f7vj9m1etzl"></path></g><g id="elg5xs1qkw8hr" class=""><path d="M320.88,296.63S308.21,284,297,294.52s-7,40.11,3.52,45,20.41-6.34,22.52-15.48S320.88,296.63,320.88,296.63Z" style="fill: rgb(255, 255, 255); opacity: 0.14; transform-origin: 306.993px 315.521px;" class="animable" id="elgr7tp01dg0l"></path></g><g id="elv56ml0vwtq" class=""><path d="M204,365.16s-16.72-20.83-32.14-15.62-17.36,30.77-9.65,34.55,24.43,9.47,31.5,7.1S204.65,373.68,204,365.16Z" style="fill: rgb(255, 255, 255); opacity: 0.39; transform-origin: 180.94px 370.227px;" class="animable" id="elutoxgwzgipg"></path></g><g id="elojb6yn1ns5c" class=""><path d="M197,372.24s-12.53-12-24.1-9-13,17.69-7.23,19.86,18.31,5.45,23.62,4.09S197.47,377.14,197,372.24Z" style="fill: rgb(255, 255, 255); opacity: 0.39; transform-origin: 179.711px 375.134px;" class="animable" id="elgazwlsxspa8"></path></g><g id="el5da4shtii6c" class=""><path d="M253.44,262.84c-6.33-1.41-9.85-7.74-13.36-20.41a24.25,24.25,0,0,0-4.92-9.82,4,4,0,0,0-2.64.54c-5.24,4.07-11.63,19.2-7,23.85s20.36,16.29,27.34,15.71c2.92-.24,6.34-4.54,9.33-9.46A37.15,37.15,0,0,1,253.44,262.84Z" style="fill: rgb(255, 255, 255); opacity: 0.39; transform-origin: 243.056px 252.65px;" class="animable" id="elf1zoea3ezks"></path></g><g id="elen4gtlov7m" class=""><path d="M158.34,274.12s-21.11-16.89-26.74-13.37-2.81,16.89,4.93,24.63S159.05,284.67,158.34,274.12Z" style="fill: rgb(255, 255, 255); opacity: 0.39; transform-origin: 143.502px 274.327px;" class="animable" id="el3zthttjjurv"></path></g><g id="elid15f2empud" class=""><path d="M171,170l8.44,246.25s15.48,2.11,21.11.7L201.8,170.6C156.35,169.72,213.17,170.84,171,170Z" style="fill: rgb(255, 255, 255); opacity: 0.39; transform-origin: 186.4px 293.718px;" class="animable" id="elezpvjn83cg"></path></g><g id="elyvhfst35ipa" class=""><path d="M246.64,246.26a5.42,5.42,0,0,1-5.1-3.6,5.48,5.48,0,0,0-.32,1.82,5.42,5.42,0,0,0,10.84,0,5.24,5.24,0,0,0-.32-1.82A5.4,5.4,0,0,1,246.64,246.26Z" style="fill: rgb(255, 255, 255); opacity: 0.39; transform-origin: 246.64px 246.28px;" class="animable" id="ellc7ehf8f7g"></path></g><g id="eln6eb85h7vx" class=""><path d="M163.18,300.12a5.42,5.42,0,0,1-5.1-3.6,5.42,5.42,0,1,0,10.2,0A5.41,5.41,0,0,1,163.18,300.12Z" style="fill: rgb(255, 255, 255); opacity: 0.39; transform-origin: 163.18px 300.147px;" class="animable" id="el362x513hie5"></path></g><g id="eloi7gy1q057k" class=""><path d="M210.26,350.05a5.42,5.42,0,0,1-5.1-3.6,5.48,5.48,0,0,0-.32,1.82,5.42,5.42,0,0,0,10.84,0,5.24,5.24,0,0,0-.32-1.82A5.4,5.4,0,0,1,210.26,350.05Z" style="fill: rgb(255, 255, 255); opacity: 0.39; transform-origin: 210.26px 350.07px;" class="animable" id="eltgenw1oqvgl"></path></g><g id="elcxvl1xq61w7" class=""><path d="M143.67,324.43a2.72,2.72,0,0,1-2.55-1.8,2.76,2.76,0,0,0-.16.91,2.71,2.71,0,0,0,5.42,0,2.53,2.53,0,0,0-.16-.91A2.7,2.7,0,0,1,143.67,324.43Z" style="fill: rgb(255, 255, 255); opacity: 0.39; transform-origin: 143.67px 324.44px;" class="animable" id="elgxk8d3ga76s"></path></g><g id="eln70t1kn3up" class=""><path d="M162.64,332.82a2.72,2.72,0,0,1-2.55-1.8,2.72,2.72,0,1,0,5.11,0A2.72,2.72,0,0,1,162.64,332.82Z" style="fill: rgb(255, 255, 255); opacity: 0.39; transform-origin: 162.645px 332.846px;" class="animable" id="elg8jz146382g"></path></g><g id="elffwri804c1d" class=""><path d="M148.33,376.07a2.7,2.7,0,0,1-2.55-1.8,2.76,2.76,0,0,0-.16.91,2.71,2.71,0,1,0,5.42,0,2.76,2.76,0,0,0-.16-.91A2.7,2.7,0,0,1,148.33,376.07Z" style="fill: rgb(255, 255, 255); opacity: 0.39; transform-origin: 148.33px 376.08px;" class="animable" id="elheowxwj28bk"></path></g><g id="elob0dpgtlumg" class=""><path d="M287.79,345a2.7,2.7,0,0,1-2.55-1.8,2.76,2.76,0,0,0-.16.91,2.71,2.71,0,1,0,5.42,0,2.76,2.76,0,0,0-.16-.91A2.7,2.7,0,0,1,287.79,345Z" style="fill: rgb(255, 255, 255); opacity: 0.39; transform-origin: 287.79px 345.01px;" class="animable" id="elk82gxzxn21h"></path></g><g id="elrwbzgu9h7k" class=""><path d="M263.89,335.8a2.72,2.72,0,0,1-2.55-1.8,2.76,2.76,0,0,0-.16.91,2.71,2.71,0,0,0,5.42,0,2.76,2.76,0,0,0-.16-.91A2.7,2.7,0,0,1,263.89,335.8Z" style="fill: rgb(255, 255, 255); opacity: 0.39; transform-origin: 263.89px 335.81px;" class="animable" id="eliktcba9p2qb"></path></g><g id="el22643e8qi2o" class=""><path d="M288.86,289.44a2.71,2.71,0,0,1-2.55-1.81,2.76,2.76,0,0,0-.16.91,2.71,2.71,0,1,0,5.42,0,2.76,2.76,0,0,0-.16-.91A2.71,2.71,0,0,1,288.86,289.44Z" style="fill: rgb(255, 255, 255); opacity: 0.39; transform-origin: 288.86px 289.44px;" class="animable" id="elkf0dpg26da"></path></g><g id="elor0vqa9bspl" class=""><path d="M134.78,350.78a2.7,2.7,0,0,1-2.55-1.8,2.76,2.76,0,0,0-.16.91,2.71,2.71,0,0,0,5.42,0,2.76,2.76,0,0,0-.16-.91A2.72,2.72,0,0,1,134.78,350.78Z" style="fill: rgb(255, 255, 255); opacity: 0.39; transform-origin: 134.78px 350.79px;" class="animable" id="elnwuc9n0c78"></path></g></g><g id="freepik--Cherries--inject-41" class="animable" style="transform-origin: 387.108px 403.15px;"><g id="eli3lmpmplrej"><ellipse cx="354.93" cy="454.44" rx="52.83" ry="11.47" style="opacity: 0.2; transform-origin: 354.93px 454.44px;" class="animable" id="el3dppxvhsvcf"></ellipse></g><path d="M364,404a29.23,29.23,0,0,0-13.95-9.61c-8.83-2.64-24.33,4.65-30.54,12.55s-7.59,22-4,33.33,25.12,17.51,35,16.74,16.74-2.64,21.08-14S373.79,411.72,364,404Z" style="fill: #77FFC0; transform-origin: 343.643px 425.457px;" id="elclfkoe0rj4d" class="animable"></path><path d="M350.07,394.36c-8.83-2.64-24.33,4.65-30.54,12.55-3.25,4.15-5.16,10-5.75,16.26,1.3-5.18,8.11-26.73,31.73-26.09a30.52,30.52,0,0,1,17.28,5.44A29.06,29.06,0,0,0,350.07,394.36Z" style="fill: rgb(255, 255, 255); transform-origin: 338.285px 408.49px;" id="el3oo3h8qerqd" class="animable"></path><g id="el8vlduuliov"><path d="M373.75,430.37c-.88.26-1.82.57-2.83,1-23.29,9-48.84,1.8-57.23-1.07a42.9,42.9,0,0,0,1.81,10c3.57,11.31,25.12,17.51,35,16.74s16.74-2.64,21.08-14A37,37,0,0,0,373.75,430.37Z" style="fill: rgb(255, 255, 255); opacity: 0.19; transform-origin: 343.72px 443.702px;" class="animable" id="el594rz8n6gde"></path></g><path d="M329.37,421.25c.5-4.08-4-7.17-7.45-5a4.5,4.5,0,0,0-.82.65c-3.07,3-5,14.29.33,19.6s7.32-1.66,7.32-7A72.93,72.93,0,0,1,329.37,421.25Z" style="fill: rgb(255, 255, 255); transform-origin: 323.748px 426.966px;" id="eldhgv4abk6t" class="animable"></path><path d="M364,404a29.23,29.23,0,0,0-13.95-9.61c-8.83-2.64-24.33,4.65-30.54,12.55s-7.59,22-4,33.33,25.12,17.51,35,16.74,16.74-2.64,21.08-14S373.79,411.72,364,404Z" style="fill: none; stroke: rgb(38, 50, 56); stroke-miterlimit: 10; transform-origin: 343.643px 425.457px;" id="el64bx4fgifyf" class="animable"></path><path d="M404.35,399.29s15.18-4.79,22.1-18.64,9.32-28,8.26-33.82,2.92-7.46,6.12-5.86-1.06,18.38-4.26,29.56-7.72,21-13.58,28a109.21,109.21,0,0,1-10.12,10.65l-2.4-2.93s15.18-10.39,20.24-26.63c0,0-5.59,13.85-22.37,23.7Z" style="fill: rgb(38, 50, 56); stroke: rgb(38, 50, 56); stroke-linecap: round; stroke-linejoin: round; transform-origin: 423.157px 374.785px;" id="elh0oa69rmyl" class="animable"></path><path d="M431.78,377.72s6.92-14.91,8-24.23" style="fill: rgb(255, 255, 255); stroke: rgb(38, 50, 56); stroke-miterlimit: 10; transform-origin: 435.78px 365.605px;" id="el27q2t3hucjgh" class="animable"></path><path d="M416.86,413.41s-4.53-11.72-13.31-18.11-23.17-5.59-32.76,1.33-15.45,13.05-18.37,25-3.45,25.1,5.06,33.82c9,9.24,28.66,10.22,37.44,7s15.48-4.46,21.87-14,4.87-20.16,3.53-25.22A74.09,74.09,0,0,0,416.86,413.41Z" style="fill: #77FFC0; transform-origin: 385.997px 427.531px;" id="el71veqv4fs3c" class="animable"></path><path d="M412.51,405.17a37.24,37.24,0,0,0-9-9.87c-8.79-6.39-23.17-5.59-32.76,1.33s-15.45,13.05-18.37,25c-.47,1.9-.87,3.84-1.18,5.78,0,0,7.87-28.53,30.66-32.57C397.08,392.18,406.6,399.4,412.51,405.17Z" style="fill: rgb(255, 255, 255); transform-origin: 381.855px 409.176px;" id="elt91unsek7p" class="animable"></path><g id="elulgw3fq6chd"><path d="M386.57,444.88c-21.71-1-32.19-13-35.33-17.43-1.68,10.27-.92,20.71,6.24,28,9,9.24,28.66,10.22,37.44,7s15.48-4.46,21.87-14a27.56,27.56,0,0,0,3.72-8.31C414.64,442.56,403.52,445.68,386.57,444.88Z" style="fill: rgb(255, 255, 255); opacity: 0.26; transform-origin: 385.5px 445.785px;" class="animable" id="eldvaep79u8qn"></path></g><path d="M404.85,411.59s-6.64,3.32-6.31,5.32,1.33,9.63,5,9.63,9.64-2.65,9.31-5.65S409.84,408.93,404.85,411.59Z" style="fill: rgb(255, 255, 255); transform-origin: 405.696px 418.821px;" id="elp9rg65ph4ph" class="animable"></path><path d="M416.86,413.41s-4.53-11.72-13.31-18.11-23.17-5.59-32.76,1.33-15.45,13.05-18.37,25-3.45,25.1,5.06,33.82c9,9.24,28.66,10.22,37.44,7s15.48-4.46,21.87-14,4.87-20.16,3.53-25.22A74.09,74.09,0,0,0,416.86,413.41Z" style="fill: none; stroke: rgb(38, 50, 56); stroke-miterlimit: 10; transform-origin: 385.997px 427.531px;" id="elj5up5jukz2g" class="animable"></path><path d="M434.71,351.09s-8,4.8-10.92,3.2S398.22,346,386.24,346s-12.25-4.79-20.78,8.79-14.11,32-14.38,32.76,8.26-5.6,18.11-5.6,24.24-2.13,35.69-8a79.94,79.94,0,0,0,20-15.18l10.12-5.6S436.84,349.49,434.71,351.09Z" style="fill: #77FFC0; stroke: rgb(38, 50, 56); stroke-miterlimit: 10; transform-origin: 393.406px 366.397px;" id="el9t35f02hu76" class="animable"></path><path d="M364.41,377.71a44,44,0,0,0-8.93,6.43" style="fill: none; stroke: rgb(38, 50, 56); stroke-miterlimit: 10; transform-origin: 359.945px 380.925px;" id="elubkr7ixsezi" class="animable"></path><path d="M414,357.62c-8.05,2.06-21.73,6-32.56,11.22-5.75,2.78-10.26,5.09-13.83,7.06" style="fill: none; stroke: rgb(38, 50, 56); stroke-miterlimit: 10; transform-origin: 390.805px 366.76px;" id="el658pjglvn6g" class="animable"></path><path d="M420.79,356s-1.48.32-4,.92" style="fill: none; stroke: rgb(38, 50, 56); stroke-miterlimit: 10; transform-origin: 418.79px 356.46px;" id="elb0ph0ni8mf8" class="animable"></path><line x1="383.05" y1="367.19" x2="372.44" y2="355.16" style="fill: none; stroke: rgb(38, 50, 56); stroke-miterlimit: 10; transform-origin: 377.745px 361.175px;" id="elid20gqp573t" class="animable"></line><path d="M383.86,369s-3.46,8.15-5.09,8.77" style="fill: none; stroke: rgb(38, 50, 56); stroke-miterlimit: 10; transform-origin: 381.315px 373.385px;" id="elqzlep3xewie" class="animable"></path><path d="M365.1,365s11.22,5.1,11,5.91-5.92,7.55-5.92,7.55" style="fill: none; stroke: rgb(38, 50, 56); stroke-miterlimit: 10; transform-origin: 370.602px 371.73px;" id="eleeqapplzv28" class="animable"></path><path d="M392,371.29c-.51,1.27-.92,2.23-1,2.43" style="fill: none; stroke: rgb(38, 50, 56); stroke-miterlimit: 10; transform-origin: 391.5px 372.505px;" id="el549ly2tsh7a" class="animable"></path><path d="M386.87,356.7c3.48,2.85,7.38,6.15,7.6,6.82s-.8,3.53-1.79,6.06" style="fill: none; stroke: rgb(38, 50, 56); stroke-miterlimit: 10; transform-origin: 390.685px 363.14px;" id="el6xdastflt16" class="animable"></path><path d="M381.42,352.3s1.39,1.1,3.26,2.61" style="fill: none; stroke: rgb(38, 50, 56); stroke-miterlimit: 10; transform-origin: 383.05px 353.605px;" id="el28u0kt274f6" class="animable"></path><path d="M396.51,352.1s9,6.53,9.18,7.34-2.86,7.75-4.29,11.22" style="fill: none; stroke: rgb(38, 50, 56); stroke-miterlimit: 10; transform-origin: 401.104px 361.38px;" id="elosju6fwnuq" class="animable"></path><line x1="412.62" y1="358.22" x2="408.95" y2="366.78" style="fill: none; stroke: rgb(38, 50, 56); stroke-miterlimit: 10; transform-origin: 410.785px 362.5px;" id="elmkeqcgyyq2q" class="animable"></line><line x1="410.78" y1="355.16" x2="405.28" y2="351.08" style="fill: none; stroke: rgb(38, 50, 56); stroke-miterlimit: 10; transform-origin: 408.03px 353.12px;" id="elu08ck5jixtc" class="animable"></line><path d="M441,352.41s3.24,3.35,3.24,4.69-3.57,10.16-.89,16.86,6.36,16,11,20.43,9.72,10.61,10.83,13.51,1.57,8,2,6.48,1.45-13.29,1.45-13.29,4.58-9.38,3.24-19.54-10.27-19.65-15.18-22.11a51.94,51.94,0,0,0-11.62-3.68l-3.79-4.91Z" style="fill: #77FFC0; stroke: rgb(38, 50, 56); stroke-miterlimit: 10; transform-origin: 456.558px 382.753px;" id="elpgx5ftb3mbs" class="animable"></path><path d="M466.42,397.24a22.26,22.26,0,0,1,.28,7.39" style="fill: none; stroke: rgb(38, 50, 56); stroke-miterlimit: 10; transform-origin: 466.653px 400.935px;" id="eld2d1l7raq55" class="animable"></path><path d="M446.75,359.54a122.63,122.63,0,0,1,14.75,23.23,57.38,57.38,0,0,1,4.15,10.93" style="fill: none; stroke: rgb(38, 50, 56); stroke-miterlimit: 10; transform-origin: 456.2px 376.62px;" id="elevrdu4d7hx6" class="animable"></path><line x1="449.53" y1="364.34" x2="445.86" y2="373.31" style="fill: none; stroke: rgb(38, 50, 56); stroke-miterlimit: 10; transform-origin: 447.695px 368.825px;" id="elydwh105l54f" class="animable"></line><path d="M452,364.13s7.75.41,9.79,1.23" style="fill: none; stroke: rgb(38, 50, 56); stroke-miterlimit: 10; transform-origin: 456.895px 364.745px;" id="elyz3iql8jhy" class="animable"></path><path d="M462.05,372.05a21.71,21.71,0,0,1,3.59,1.87" style="fill: none; stroke: rgb(38, 50, 56); stroke-miterlimit: 10; transform-origin: 463.845px 372.985px;" id="elx4cdnwg1bii" class="animable"></path><path d="M449.94,381.06l4.28-11.42a46.93,46.93,0,0,1,5.9,1.66" style="fill: none; stroke: rgb(38, 50, 56); stroke-miterlimit: 10; transform-origin: 455.03px 375.35px;" id="eloyunej97k3" class="animable"></path><path d="M456.62,380.31l1.88-3.53s10,5.3,11.22,6.32" style="fill: none; stroke: rgb(38, 50, 56); stroke-miterlimit: 10; transform-origin: 463.17px 379.94px;" id="el5mfs7i3w7ba" class="animable"></path><line x1="453.41" y1="386.36" x2="455.6" y2="382.24" style="fill: none; stroke: rgb(38, 50, 56); stroke-miterlimit: 10; transform-origin: 454.505px 384.3px;" id="elbubfb8bkwjr" class="animable"></line><polyline points="459.45 388.93 462.58 384.52 469.11 390.85" style="fill: none; stroke: rgb(38, 50, 56); stroke-miterlimit: 10; transform-origin: 464.28px 387.685px;" id="elcno8pbkl81" class="animable"></polyline><line x1="457.08" y1="392.27" x2="458.26" y2="390.61" style="fill: none; stroke: rgb(38, 50, 56); stroke-miterlimit: 10; transform-origin: 457.67px 391.44px;" id="elwcqtblaah3" class="animable"></line></g><defs>     <filter id="active" height="200%">         <feMorphology in="SourceAlpha" result="DILATED" operator="dilate" radius="2"></feMorphology>                <feFlood flood-color="#32DFEC" flood-opacity="1" result="PINK"></feFlood>        <feComposite in="PINK" in2="DILATED" operator="in" result="OUTLINE"></feComposite>        <feMerge>            <feMergeNode in="OUTLINE"></feMergeNode>            <feMergeNode in="SourceGraphic"></feMergeNode>        </feMerge>    </filter>    <filter id="hover" height="200%">        <feMorphology in="SourceAlpha" result="DILATED" operator="dilate" radius="2"></feMorphology>                <feFlood flood-color="#ff0000" flood-opacity="0.5" result="PINK"></feFlood>        <feComposite in="PINK" in2="DILATED" operator="in" result="OUTLINE"></feComposite>        <feMerge>            <feMergeNode in="OUTLINE"></feMergeNode>            <feMergeNode in="SourceGraphic"></feMergeNode>        </feMerge>            <feColorMatrix type="matrix" values="0   0   0   0   0                0   1   0   0   0                0   0   0   0   0                0   0   0   1   0 "></feColorMatrix>    </filter></defs></svg>